<?xml version="1.0" encoding="utf-8"?>
<!-- Generator: Adobe Illustrator 18.0.0, SVG Export Plug-In . SVG Version: 6.00 Build 0)  -->
<!DOCTYPE svg PUBLIC "-//W3C//DTD SVG 1.1//EN" "http://www.w3.org/Graphics/SVG/1.1/DTD/svg11.dtd">
<svg version="1.1" id="Layer_1" xmlns="http://www.w3.org/2000/svg" xmlns:xlink="http://www.w3.org/1999/xlink" x="0px" y="0px"
	 viewBox="0 0 612 792" enable-background="new 0 0 612 792" xml:space="preserve">
<path fill="#A33225" d="M305.5,347.1c6.5,0,12.8,1.3,18.8,3.8c2.9,1.2,5.6,2.7,8.2,4.5c2.6,1.7,5,3.7,7.1,5.9
	c2.2,2.2,4.2,4.6,5.9,7.1c1.7,2.6,3.2,5.3,4.5,8.2c2.5,6,3.8,12.3,3.8,18.8c0,6.5-1.3,12.8-3.8,18.8c-1.2,2.9-2.7,5.6-4.5,8.2
	c-1.7,2.6-3.7,5-5.9,7.1c-2.2,2.2-4.6,4.2-7.1,5.9c-2.6,1.7-5.3,3.2-8.2,4.5c-6,2.5-12.3,3.8-18.8,3.8c-6.5,0-12.8-1.3-18.8-3.8
	c-2.9-1.2-5.6-2.7-8.2-4.5c-2.6-1.7-5-3.7-7.1-5.9c-2.2-2.2-4.2-4.6-5.9-7.1c-1.7-2.6-3.2-5.3-4.5-8.2c-2.5-6-3.8-12.3-3.8-18.8
	c0-6.5,1.3-12.8,3.8-18.8c1.2-2.9,2.7-5.6,4.5-8.2c1.7-2.6,3.7-5,5.9-7.1c2.2-2.2,4.6-4.2,7.1-5.9c2.6-1.7,5.3-3.2,8.2-4.5
	C292.7,348.4,299,347.1,305.5,347.1 M305.5,345.2c-27.7,0-50.2,22.5-50.2,50.2c0,27.7,22.5,50.2,50.2,50.2
	c27.7,0,50.2-22.5,50.2-50.2C355.7,367.7,333.2,345.2,305.5,345.2L305.5,345.2z"/>
<path fill="#C57057" d="M305.5,351.3c6,0,11.7,1.2,17.2,3.5c2.6,1.1,5.1,2.5,7.5,4.1c2.3,1.6,4.5,3.4,6.5,5.4c2,2,3.8,4.2,5.4,6.5
	c1.6,2.4,3,4.9,4.1,7.5c2.3,5.4,3.5,11.2,3.5,17.2c0,6-1.2,11.7-3.5,17.2c-1.1,2.6-2.5,5.1-4.1,7.5c-1.6,2.3-3.4,4.5-5.4,6.5
	c-2,2-4.2,3.8-6.5,5.4c-2.4,1.6-4.9,3-7.5,4.1c-5.4,2.3-11.2,3.5-17.2,3.5c-6,0-11.7-1.2-17.2-3.5c-2.6-1.1-5.1-2.5-7.5-4.1
	c-2.3-1.6-4.5-3.4-6.5-5.4c-2-2-3.8-4.2-5.4-6.5c-1.6-2.4-3-4.9-4.1-7.5c-2.3-5.4-3.5-11.2-3.5-17.2c0-6,1.2-11.7,3.5-17.2
	c1.1-2.6,2.5-5.1,4.1-7.5c1.6-2.3,3.4-4.5,5.4-6.5c2-2,4.2-3.8,6.5-5.4c2.4-1.6,4.9-3,7.5-4.1C293.8,352.4,299.5,351.3,305.5,351.3
	 M305.5,349.3c-25.4,0-46.1,20.6-46.1,46.1s20.6,46.1,46.1,46.1c25.4,0,46.1-20.6,46.1-46.1S330.9,349.3,305.5,349.3L305.5,349.3z"
	/>
<path fill="#DD8773" d="M305.5,355.4c5.4,0,10.6,1.1,15.6,3.1c4.8,2,9,4.9,12.7,8.6c3.7,3.7,6.6,7.9,8.6,12.7
	c2.1,4.9,3.1,10.2,3.1,15.6c0,5.4-1.1,10.6-3.1,15.6c-2,4.8-4.9,9-8.6,12.7c-3.7,3.7-7.9,6.6-12.7,8.6c-4.9,2.1-10.2,3.1-15.6,3.1
	c-5.4,0-10.6-1.1-15.6-3.1c-4.8-2-9-4.9-12.7-8.6c-3.7-3.7-6.6-7.9-8.6-12.7c-2.1-4.9-3.1-10.2-3.1-15.6c0-5.4,1.1-10.6,3.1-15.6
	c2-4.8,4.9-9,8.6-12.7c3.7-3.7,7.9-6.6,12.7-8.6C294.9,356.5,300.1,355.4,305.5,355.4 M305.5,353.5c-23.1,0-41.9,18.8-41.9,41.9
	c0,23.1,18.8,41.9,41.9,41.9c23.1,0,41.9-18.8,41.9-41.9C347.4,372.3,328.6,353.5,305.5,353.5L305.5,353.5z"/>
<path fill="#E0A16C" d="M305.5,359.5c4.8,0,9.5,0.9,14,2.8c4.3,1.8,8.1,4.4,11.4,7.7c3.3,3.3,5.9,7.1,7.7,11.4
	c1.9,4.4,2.8,9.1,2.8,14c0,4.8-0.9,9.5-2.8,14c-1.8,4.3-4.4,8.1-7.7,11.4c-3.3,3.3-7.1,5.9-11.4,7.7c-4.4,1.9-9.1,2.8-14,2.8
	c-4.8,0-9.5-0.9-14-2.8c-4.3-1.8-8.1-4.4-11.4-7.7c-3.3-3.3-5.9-7.1-7.7-11.4c-1.9-4.4-2.8-9.1-2.8-14c0-4.8,0.9-9.5,2.8-14
	c1.8-4.3,4.4-8.1,7.7-11.4c3.3-3.3,7.1-5.9,11.4-7.7C296,360.5,300.7,359.5,305.5,359.5 M305.5,357.6c-20.9,0-37.8,16.9-37.8,37.8
	c0,20.9,16.9,37.8,37.8,37.8s37.8-16.9,37.8-37.8C343.3,374.5,326.4,357.6,305.5,357.6L305.5,357.6z"/>
<path fill="#DDB46C" d="M305.5,363.7c4.3,0,8.4,0.8,12.4,2.5c3.8,1.6,7.2,3.9,10.1,6.8c2.9,2.9,5.2,6.3,6.8,10.1
	c1.7,3.9,2.5,8.1,2.5,12.4s-0.8,8.4-2.5,12.4c-1.6,3.8-3.9,7.2-6.8,10.1c-2.9,2.9-6.3,5.2-10.1,6.8c-3.9,1.7-8.1,2.5-12.4,2.5
	c-4.3,0-8.4-0.8-12.4-2.5c-3.8-1.6-7.2-3.9-10.1-6.8c-2.9-2.9-5.2-6.3-6.8-10.1c-1.7-3.9-2.5-8.1-2.5-12.4s0.8-8.4,2.5-12.4
	c1.6-3.8,3.9-7.2,6.8-10.1c2.9-2.9,6.3-5.2,10.1-6.8C297.1,364.5,301.2,363.7,305.5,363.7 M305.5,361.7c-18.6,0-33.7,15.1-33.7,33.7
	s15.1,33.7,33.7,33.7c18.6,0,33.7-15.1,33.7-33.7S324.1,361.7,305.5,361.7L305.5,361.7z"/>
<path fill="#CD9B52" d="M305.5,367.9c3.7,0,7.3,0.7,10.7,2.2c3.3,1.4,6.2,3.4,8.7,5.9c2.5,2.5,4.5,5.5,5.9,8.7
	c1.4,3.4,2.2,7,2.2,10.7c0,3.7-0.7,7.3-2.2,10.7c-1.4,3.3-3.4,6.2-5.9,8.7c-2.5,2.5-5.5,4.5-8.7,5.9c-3.4,1.4-7,2.2-10.7,2.2
	c-3.7,0-7.3-0.7-10.7-2.2c-3.3-1.4-6.2-3.4-8.7-5.9c-2.5-2.5-4.5-5.5-5.9-8.7c-1.4-3.4-2.2-7-2.2-10.7c0-3.7,0.7-7.3,2.2-10.7
	c1.4-3.3,3.4-6.2,5.9-8.7c2.5-2.5,5.5-4.5,8.7-5.9C298.2,368.7,301.8,367.9,305.5,367.9 M305.5,366c-16.2,0-29.4,13.2-29.4,29.4
	c0,16.2,13.2,29.4,29.4,29.4c16.2,0,29.4-13.2,29.4-29.4C334.9,379.2,321.7,366,305.5,366L305.5,366z"/>
<path fill="#CC8352" d="M305.4,372.3c3.1,0,6.2,0.6,9,1.8c2.8,1.2,5.2,2.8,7.4,5c2.1,2.1,3.8,4.6,5,7.4c1.2,2.9,1.8,5.9,1.8,9
	c0,3.1-0.6,6.2-1.8,9c-1.2,2.8-2.8,5.2-5,7.4c-2.1,2.1-4.6,3.8-7.4,5c-2.9,1.2-5.9,1.8-9,1.8c-3.1,0-6.2-0.6-9-1.8
	c-2.8-1.2-5.2-2.8-7.4-5c-2.1-2.1-3.8-4.6-5-7.4c-1.2-2.9-1.8-5.9-1.8-9c0-3.1,0.6-6.2,1.8-9c1.2-2.8,2.8-5.2,5-7.4
	c2.1-2.1,4.6-3.8,7.4-5C299.3,372.9,302.3,372.3,305.4,372.3 M305.4,370.4c-13.8,0-25.1,11.2-25.1,25.1c0,13.8,11.2,25.1,25.1,25.1
	c13.8,0,25.1-11.2,25.1-25.1C330.5,381.6,319.3,370.4,305.4,370.4L305.4,370.4z"/>
<path fill="#B27247" d="M305.4,376.6c2.5,0,5,0.5,7.3,1.5c2.2,0.9,4.3,2.3,6,4c1.7,1.7,3.1,3.7,4,6c1,2.3,1.5,4.8,1.5,7.3
	c0,2.5-0.5,5-1.5,7.3c-0.9,2.2-2.3,4.3-4,6c-1.7,1.7-3.7,3.1-6,4c-2.3,1-4.8,1.5-7.3,1.5c-2.5,0-5-0.5-7.3-1.5c-2.2-0.9-4.3-2.3-6-4
	c-1.7-1.7-3.1-3.7-4-6c-1-2.3-1.5-4.8-1.5-7.3c0-2.5,0.5-5,1.5-7.3c0.9-2.2,2.3-4.3,4-6c1.7-1.7,3.7-3.1,6-4
	C300.4,377.1,302.9,376.6,305.4,376.6 M305.4,374.7c-11.5,0-20.8,9.3-20.8,20.8c0,11.5,9.3,20.8,20.8,20.8s20.8-9.3,20.8-20.8
	C326.2,384,316.9,374.7,305.4,374.7L305.4,374.7z"/>
<path fill="#A33225" d="M305.4,380.9c3.9,0,7.5,1.5,10.3,4.3c2.7,2.7,4.3,6.4,4.3,10.3s-1.5,7.5-4.3,10.3c-2.7,2.7-6.4,4.3-10.3,4.3
	c-3.9,0-7.5-1.5-10.3-4.3c-2.7-2.7-4.3-6.4-4.3-10.3s1.5-7.5,4.3-10.3C297.9,382.4,301.5,380.9,305.4,380.9 M305.4,379
	c-9.1,0-16.4,7.4-16.4,16.4c0,9.1,7.4,16.4,16.4,16.4c9.1,0,16.4-7.4,16.4-16.4C321.9,386.3,314.5,379,305.4,379L305.4,379z"/>
<path fill="#C57057" d="M305.3,385.1c2.8,0,5.4,1.1,7.3,3c2,2,3,4.6,3,7.3c0,2.8-1.1,5.4-3,7.3c-2,2-4.6,3-7.3,3
	c-2.8,0-5.4-1.1-7.3-3c-2-2-3-4.6-3-7.3c0-2.8,1.1-5.4,3-7.3C300,386.2,302.6,385.1,305.3,385.1 M305.3,383.2
	c-6.8,0-12.3,5.5-12.3,12.3c0,6.8,5.5,12.3,12.3,12.3c6.8,0,12.3-5.5,12.3-12.3C317.6,388.7,312.1,383.2,305.3,383.2L305.3,383.2z"
	/>
<path fill="#DD8773" d="M305.3,389.2c3.5,0,6.3,2.8,6.3,6.3c0,3.5-2.8,6.3-6.3,6.3c-3.5,0-6.3-2.8-6.3-6.3
	C299.1,392,301.9,389.2,305.3,389.2 M305.3,387.3c-4.5,0-8.2,3.7-8.2,8.2c0,4.5,3.7,8.2,8.2,8.2c4.5,0,8.2-3.7,8.2-8.2
	C313.5,391,309.9,387.3,305.3,387.3L305.3,387.3z"/>
<path fill="#E0A16C" d="M305.3,393.4c1.2,0,2.1,1,2.1,2.1c0,1.2-1,2.1-2.1,2.1c-1.2,0-2.1-1-2.1-2.1
	C303.2,394.3,304.2,393.4,305.3,393.4 M305.3,391.4c-2.2,0-4,1.8-4,4c0,2.2,1.8,4,4,4c2.2,0,4-1.8,4-4
	C309.4,393.2,307.6,391.4,305.3,391.4L305.3,391.4z"/>
</svg>
