<?xml version="1.0" encoding="utf-8"?>
<!-- Generator: Adobe Illustrator 18.0.0, SVG Export Plug-In . SVG Version: 6.00 Build 0)  -->
<!DOCTYPE svg PUBLIC "-//W3C//DTD SVG 1.1//EN" "http://www.w3.org/Graphics/SVG/1.1/DTD/svg11.dtd">
<svg version="1.1" id="Layer_1" xmlns="http://www.w3.org/2000/svg" xmlns:xlink="http://www.w3.org/1999/xlink" x="0px" y="0px"
	 viewBox="0 0 612 792" enable-background="new 0 0 612 792" xml:space="preserve">
<g>
	<polygon fill="#CD9B52" points="144.2,359.4 146.4,359.4 147.2,358.2 147.2,355.2 	"/>
	<polygon fill="#DDB46C" points="139.8,359.4 142,359.4 147.2,352.2 147.2,349.2 	"/>
	<polygon fill="#E0A16C" points="135.4,359.4 137.6,359.4 147.2,346.2 147.2,343.2 	"/>
	<polygon fill="#DD8773" points="131.1,359.4 133.2,359.4 147.2,340.2 147.2,337.2 	"/>
	<polygon fill="#C57057" points="126.7,359.4 128.9,359.4 147.2,334.2 147.2,331.2 	"/>
	<polygon fill="#A33225" points="122.3,359.4 124.5,359.4 147.2,328.2 147.2,325.2 	"/>
	<rect x="96.1" y="384.9" fill="#B27247" width="76.7" height="1.9"/>
	<rect x="96.1" y="381.1" fill="#C57057" width="76.7" height="1.9"/>
	<rect x="96.1" y="377.2" fill="#DD8773" width="76.7" height="1.9"/>
	<rect x="96.1" y="373.4" fill="#E0A16C" width="76.7" height="1.9"/>
	<rect x="96.1" y="369.5" fill="#DDB46C" width="76.7" height="1.9"/>
	<rect x="96.1" y="365.7" fill="#CD9B52" width="76.7" height="1.9"/>
	<rect x="96.1" y="361.9" fill="#A33225" width="76.7" height="1.9"/>
	<path fill="#A33225" d="M147,457.9c-2.6-1.1-5.1-2.5-7.5-4.1c-2.3-1.6-4.5-3.4-6.5-5.4c-2-2-3.8-4.2-5.4-6.5
		c-1.6-2.4-3-4.9-4.1-7.5c-2.3-5.4-3.3-11.2-3.3-17.2c0-0.1,0-0.1,0-0.1v-28.3h-1.9v28.3h0c0,0.1,0,0.2,0,0.3c0,23.7,18,43,41,45.4
		v-1.8C155,460.7,150.9,459.6,147,457.9z"/>
	<path fill="#C57057" d="M148.5,454.5c-2.4-1-4.7-2.3-6.8-3.7c-2.1-1.4-4.1-3.1-6-4.9c-1.8-1.8-3.5-3.8-4.9-6
		c-1.5-2.2-2.7-4.5-3.7-6.8c-2.1-5-3.2-10.2-3.2-15.7c0-0.1,0-0.1,0-0.2h0v-28.3h-1.8v28.3c0,0.1,0,0.1,0,0.2
		c0,21.5,16.2,39.3,37.1,41.8v-1.8C155.5,456.9,152,455.9,148.5,454.5z"/>
	<path fill="#DD8773" d="M150,451c-4.3-1.8-8.3-4.5-11.6-7.8c-3.4-3.4-6-7.3-7.8-11.6c-1.9-4.5-2.9-9.3-2.9-14.2c0-0.1,0-0.1,0-0.2
		h0v-28.3H126v28.3h0c0,0.1,0,0.1,0,0.2c0,19.4,14.5,35.5,33.2,37.9v-1.8C156.1,453.1,153,452.2,150,451z"/>
	<path fill="#E0A16C" d="M151.6,447.5c-3.9-1.7-7.4-4-10.4-7c-3-3-5.4-6.5-7-10.4c-1.7-4-2.6-8.3-2.6-12.8c0-0.1,0-0.1,0-0.2v-28.2
		h-1.8v28.2c0,0.1,0,0.1,0,0.2c0,17.3,12.8,31.7,29.4,34.1v-1.8C156.6,449.2,154,448.5,151.6,447.5z"/>
	<path fill="#DDB46C" d="M153.1,444c-3.5-1.5-6.6-3.6-9.2-6.2c-2.7-2.7-4.8-5.8-6.2-9.2c-1.5-3.6-2.3-7.4-2.3-11.3
		c0-0.1,0-0.1,0-0.2h0v-28.2h-1.7v28.3h0c0,0,0,0.1,0,0.1c0,15.2,11,27.8,25.5,30.3v-1.8C157.1,445.4,155.1,444.8,153.1,444z"/>
	<path fill="#CD9B52" d="M154.6,440.4c-3-1.3-5.7-3.1-8-5.4c-2.3-2.3-4.1-5-5.4-8c-1.3-3.1-2-6.4-2-9.8c0-0.1,0-0.1,0-0.2h0v-28.2
		h-1.7v28.2h0c0,0.1,0,0.1,0,0.2c0,13.1,9.4,24,21.7,26.4v-1.8C157.6,441.5,156.1,441,154.6,440.4z"/>
	<path fill="#CC8352" d="M156.1,436.8c-2.5-1.1-4.8-2.6-6.7-4.5c-1.9-1.9-3.5-4.2-4.5-6.7c-1.1-2.6-1.7-5.4-1.7-8.2
		c0-0.1,0-0.1,0-0.2h0v-28.3h-1.8v28.3h0c0,0.1,0,0.1,0,0.2c0,10.9,7.6,20,17.8,22.3v-1.8C158.2,437.6,157.1,437.3,156.1,436.8z"/>
	<path fill="#A33225" d="M157.5,433.2c-2-0.9-3.9-2.1-5.5-3.7c-1.6-1.6-2.8-3.4-3.7-5.5c-0.9-2.1-1.4-4.4-1.4-6.7c0-0.1,0-0.2,0-0.2
		h0v-28.2h-1.7v28.2c0,0.1,0,0.2,0,0.2c0,8.7,5.9,16.1,14,18.3v-1.8C158.6,433.6,158.1,433.5,157.5,433.2z"/>
	<path fill="#A33225" d="M237.5,364.1c6.5,0,12.8,1.3,18.8,3.8c2.9,1.2,5.6,2.7,8.2,4.5c2.6,1.7,5,3.7,7.1,5.9
		c2.2,2.2,4.2,4.6,5.9,7.1c1.7,2.6,3.2,5.3,4.5,8.2c2.5,6,3.8,12.3,3.8,18.8c0,6.5-1.3,12.8-3.8,18.8c-1.2,2.9-2.7,5.6-4.5,8.2
		c-1.7,2.6-3.7,5-5.9,7.1c-2.2,2.2-4.6,4.2-7.1,5.9c-2.6,1.7-5.3,3.2-8.2,4.5c-6,2.5-12.3,3.8-18.8,3.8c-6.5,0-12.8-1.3-18.8-3.8
		c-2.9-1.2-5.6-2.7-8.2-4.5c-2.6-1.7-5-3.7-7.1-5.9c-2.2-2.2-4.2-4.6-5.9-7.1c-1.7-2.6-3.2-5.3-4.5-8.2c-2.5-6-3.8-12.3-3.8-18.8
		c0-6.5,1.3-12.8,3.8-18.8c1.2-2.9,2.7-5.6,4.5-8.2c1.7-2.6,3.7-5,5.9-7.1c2.2-2.2,4.6-4.2,7.1-5.9c2.6-1.7,5.3-3.2,8.2-4.5
		C224.7,365.4,231,364.1,237.5,364.1 M237.5,362.2c-27.7,0-50.2,22.5-50.2,50.2c0,27.7,22.5,50.2,50.2,50.2
		c27.7,0,50.2-22.5,50.2-50.2C287.7,384.7,265.2,362.2,237.5,362.2L237.5,362.2z"/>
	<path fill="#C57057" d="M237.5,368.3c6,0,11.7,1.2,17.2,3.5c2.6,1.1,5.1,2.5,7.5,4.1c2.3,1.6,4.5,3.4,6.5,5.4c2,2,3.8,4.2,5.4,6.5
		c1.6,2.4,3,4.9,4.1,7.5c2.3,5.4,3.5,11.2,3.5,17.2c0,6-1.2,11.7-3.5,17.2c-1.1,2.6-2.5,5.1-4.1,7.5c-1.6,2.3-3.4,4.5-5.4,6.5
		c-2,2-4.2,3.8-6.5,5.4c-2.4,1.6-4.9,3-7.5,4.1c-5.4,2.3-11.2,3.5-17.2,3.5c-6,0-11.7-1.2-17.2-3.5c-2.6-1.1-5.1-2.5-7.5-4.1
		c-2.3-1.6-4.5-3.4-6.5-5.4c-2-2-3.8-4.2-5.4-6.5c-1.6-2.4-3-4.9-4.1-7.5c-2.3-5.4-3.5-11.2-3.5-17.2c0-6,1.2-11.7,3.5-17.2
		c1.1-2.6,2.5-5.1,4.1-7.5c1.6-2.3,3.4-4.5,5.4-6.5c2-2,4.2-3.8,6.5-5.4c2.4-1.6,4.9-3,7.5-4.1C225.8,369.4,231.5,368.3,237.5,368.3
		 M237.5,366.3c-25.4,0-46.1,20.6-46.1,46.1s20.6,46.1,46.1,46.1c25.4,0,46.1-20.6,46.1-46.1S262.9,366.3,237.5,366.3L237.5,366.3z"
		/>
	<path fill="#DD8773" d="M237.5,372.4c5.4,0,10.6,1.1,15.6,3.1c4.8,2,9,4.9,12.7,8.6c3.7,3.7,6.6,7.9,8.6,12.7
		c2.1,4.9,3.1,10.2,3.1,15.6c0,5.4-1.1,10.6-3.1,15.6c-2,4.8-4.9,9-8.6,12.7c-3.7,3.7-7.9,6.6-12.7,8.6c-4.9,2.1-10.2,3.1-15.6,3.1
		c-5.4,0-10.6-1.1-15.6-3.1c-4.8-2-9-4.9-12.7-8.6c-3.7-3.7-6.6-7.9-8.6-12.7c-2.1-4.9-3.1-10.2-3.1-15.6c0-5.4,1.1-10.6,3.1-15.6
		c2-4.8,4.9-9,8.6-12.7c3.7-3.7,7.9-6.6,12.7-8.6C226.9,373.5,232.1,372.4,237.5,372.4 M237.5,370.5c-23.1,0-41.9,18.8-41.9,41.9
		c0,23.1,18.8,41.9,41.9,41.9c23.1,0,41.9-18.8,41.9-41.9C279.4,389.3,260.6,370.5,237.5,370.5L237.5,370.5z"/>
	<path fill="#E0A16C" d="M237.5,376.5c4.8,0,9.5,0.9,14,2.8c4.3,1.8,8.1,4.4,11.4,7.7c3.3,3.3,5.9,7.1,7.7,11.4
		c1.9,4.4,2.8,9.1,2.8,14c0,4.8-0.9,9.5-2.8,14c-1.8,4.3-4.4,8.1-7.7,11.4c-3.3,3.3-7.1,5.9-11.4,7.7c-4.4,1.9-9.1,2.8-14,2.8
		c-4.8,0-9.5-0.9-14-2.8c-4.3-1.8-8.1-4.4-11.4-7.7c-3.3-3.3-5.9-7.1-7.7-11.4c-1.9-4.4-2.8-9.1-2.8-14c0-4.8,0.9-9.5,2.8-14
		c1.8-4.3,4.4-8.1,7.7-11.4c3.3-3.3,7.1-5.9,11.4-7.7C228,377.5,232.7,376.5,237.5,376.5 M237.5,374.6c-20.9,0-37.8,16.9-37.8,37.8
		c0,20.9,16.9,37.8,37.8,37.8c20.9,0,37.8-16.9,37.8-37.8C275.3,391.5,258.4,374.6,237.5,374.6L237.5,374.6z"/>
	<path fill="#DDB46C" d="M237.5,380.7c4.3,0,8.4,0.8,12.4,2.5c3.8,1.6,7.2,3.9,10.1,6.8c2.9,2.9,5.2,6.3,6.8,10.1
		c1.7,3.9,2.5,8.1,2.5,12.4s-0.8,8.4-2.5,12.4c-1.6,3.8-3.9,7.2-6.8,10.1c-2.9,2.9-6.3,5.2-10.1,6.8c-3.9,1.7-8.1,2.5-12.4,2.5
		c-4.3,0-8.4-0.8-12.4-2.5c-3.8-1.6-7.2-3.9-10.1-6.8c-2.9-2.9-5.2-6.3-6.8-10.1c-1.7-3.9-2.5-8.1-2.5-12.4s0.8-8.4,2.5-12.4
		c1.6-3.8,3.9-7.2,6.8-10.1c2.9-2.9,6.3-5.2,10.1-6.8C229.1,381.5,233.2,380.7,237.5,380.7 M237.5,378.7
		c-18.6,0-33.7,15.1-33.7,33.7s15.1,33.7,33.7,33.7c18.6,0,33.7-15.1,33.7-33.7S256.1,378.7,237.5,378.7L237.5,378.7z"/>
	<path fill="#CD9B52" d="M237.5,384.9c3.7,0,7.3,0.7,10.7,2.2c3.3,1.4,6.2,3.4,8.7,5.9c2.5,2.5,4.5,5.5,5.9,8.7
		c1.4,3.4,2.2,7,2.2,10.7c0,3.7-0.7,7.3-2.2,10.7c-1.4,3.3-3.4,6.2-5.9,8.7c-2.5,2.5-5.5,4.5-8.7,5.9c-3.4,1.4-7,2.2-10.7,2.2
		c-3.7,0-7.3-0.7-10.7-2.2c-3.3-1.4-6.2-3.4-8.7-5.9c-2.5-2.5-4.5-5.5-5.9-8.7c-1.4-3.4-2.2-7-2.2-10.7c0-3.7,0.7-7.3,2.2-10.7
		c1.4-3.3,3.4-6.2,5.9-8.7c2.5-2.5,5.5-4.5,8.7-5.9C230.2,385.7,233.8,384.9,237.5,384.9 M237.5,383c-16.2,0-29.4,13.2-29.4,29.4
		c0,16.2,13.2,29.4,29.4,29.4s29.4-13.2,29.4-29.4C266.9,396.2,253.7,383,237.5,383L237.5,383z"/>
	<path fill="#CC8352" d="M237.4,389.3c3.1,0,6.2,0.6,9,1.8c2.8,1.2,5.2,2.8,7.4,5c2.1,2.1,3.8,4.6,5,7.4c1.2,2.9,1.8,5.9,1.8,9
		c0,3.1-0.6,6.2-1.8,9c-1.2,2.8-2.8,5.2-5,7.4c-2.1,2.1-4.6,3.8-7.4,5c-2.9,1.2-5.9,1.8-9,1.8c-3.1,0-6.2-0.6-9-1.8
		c-2.8-1.2-5.2-2.8-7.4-5c-2.1-2.1-3.8-4.6-5-7.4c-1.2-2.9-1.8-5.9-1.8-9c0-3.1,0.6-6.2,1.8-9c1.2-2.8,2.8-5.2,5-7.4
		c2.1-2.1,4.6-3.8,7.4-5C231.3,389.9,234.3,389.3,237.4,389.3 M237.4,387.4c-13.8,0-25.1,11.2-25.1,25.1c0,13.8,11.2,25.1,25.1,25.1
		c13.8,0,25.1-11.2,25.1-25.1C262.5,398.6,251.3,387.4,237.4,387.4L237.4,387.4z"/>
	<path fill="#B27247" d="M237.4,393.6c2.5,0,5,0.5,7.3,1.5c2.2,0.9,4.3,2.3,6,4c1.7,1.7,3.1,3.7,4,6c1,2.3,1.5,4.8,1.5,7.3
		c0,2.5-0.5,5-1.5,7.3c-0.9,2.2-2.3,4.3-4,6c-1.7,1.7-3.7,3.1-6,4c-2.3,1-4.8,1.5-7.3,1.5c-2.5,0-5-0.5-7.3-1.5
		c-2.2-0.9-4.3-2.3-6-4c-1.7-1.7-3.1-3.7-4-6c-1-2.3-1.5-4.8-1.5-7.3c0-2.5,0.5-5,1.5-7.3c0.9-2.2,2.3-4.3,4-6c1.7-1.7,3.7-3.1,6-4
		C232.4,394.1,234.9,393.6,237.4,393.6 M237.4,391.7c-11.5,0-20.8,9.3-20.8,20.8c0,11.5,9.3,20.8,20.8,20.8s20.8-9.3,20.8-20.8
		C258.2,401,248.9,391.7,237.4,391.7L237.4,391.7z"/>
	<path fill="#A33225" d="M237.4,397.9c3.9,0,7.5,1.5,10.3,4.3c2.7,2.7,4.3,6.4,4.3,10.3s-1.5,7.5-4.3,10.3
		c-2.7,2.7-6.4,4.3-10.3,4.3c-3.9,0-7.5-1.5-10.3-4.3c-2.7-2.7-4.3-6.4-4.3-10.3s1.5-7.5,4.3-10.3
		C229.9,399.4,233.5,397.9,237.4,397.9 M237.4,396c-9.1,0-16.4,7.4-16.4,16.4c0,9.1,7.4,16.4,16.4,16.4s16.4-7.4,16.4-16.4
		C253.9,403.3,246.5,396,237.4,396L237.4,396z"/>
	<path fill="#C57057" d="M237.3,402.1c2.8,0,5.4,1.1,7.3,3c2,2,3,4.6,3,7.3c0,2.8-1.1,5.4-3,7.3c-2,2-4.6,3-7.3,3
		c-2.8,0-5.4-1.1-7.3-3c-2-2-3-4.6-3-7.3c0-2.8,1.1-5.4,3-7.3C232,403.2,234.6,402.1,237.3,402.1 M237.3,400.2
		c-6.8,0-12.3,5.5-12.3,12.3c0,6.8,5.5,12.3,12.3,12.3c6.8,0,12.3-5.5,12.3-12.3C249.6,405.7,244.1,400.2,237.3,400.2L237.3,400.2z"
		/>
	<path fill="#DD8773" d="M237.3,406.2c3.5,0,6.3,2.8,6.3,6.3c0,3.5-2.8,6.3-6.3,6.3c-3.5,0-6.3-2.8-6.3-6.3
		C231.1,409,233.9,406.2,237.3,406.2 M237.3,404.3c-4.5,0-8.2,3.7-8.2,8.2c0,4.5,3.7,8.2,8.2,8.2c4.5,0,8.2-3.7,8.2-8.2
		C245.5,408,241.9,404.3,237.3,404.3L237.3,404.3z"/>
	<path fill="#E0A16C" d="M237.3,410.4c1.2,0,2.1,1,2.1,2.1c0,1.2-1,2.1-2.1,2.1c-1.2,0-2.1-1-2.1-2.1
		C235.2,411.3,236.2,410.4,237.3,410.4 M237.3,408.4c-2.2,0-4,1.8-4,4c0,2.2,1.8,4,4,4c2.2,0,4-1.8,4-4
		C241.4,410.2,239.6,408.4,237.3,408.4L237.3,408.4z"/>
	<rect x="312.5" y="361.3" fill="#A33225" width="1.9" height="101.5"/>
	<rect x="316.4" y="361.3" fill="#C57057" width="1.9" height="101.5"/>
	<rect x="320.2" y="361.3" fill="#DD8773" width="1.9" height="101.5"/>
	<rect x="324.1" y="361.3" fill="#E0A16C" width="1.9" height="101.5"/>
	<rect x="327.9" y="361.3" fill="#DDB46C" width="1.9" height="101.5"/>
	<rect x="331.7" y="361.3" fill="#CC8352" width="1.9" height="101.5"/>
	<rect x="335.6" y="361.3" fill="#B27247" width="1.9" height="101.5"/>
	<rect x="339.4" y="361.3" fill="#A33225" width="1.9" height="101.5"/>
	<path fill="none" d="M496.7,394.4c0.1,0.2,0.3,0.4,0.4,0.6C497,394.8,496.8,394.6,496.7,394.4z"/>
	<path fill="none" d="M494.6,391.7c0.1,0.2,0.3,0.3,0.4,0.5C494.9,392,494.8,391.8,494.6,391.7z"/>
	<path fill="none" d="M495.7,393c0.1,0.2,0.3,0.4,0.4,0.6C496,393.4,495.8,393.2,495.7,393z"/>
	<path fill="none" d="M500.5,392.7c0.1,0.2,0.2,0.4,0.4,0.6C500.8,393,500.7,392.8,500.5,392.7z"/>
	<path fill="none" d="M497.7,395.8c0.1,0.2,0.3,0.4,0.4,0.6C497.9,396.2,497.8,396,497.7,395.8z"/>
	<path fill="none" d="M499.4,391.1c0.1,0.1,0.1,0.2,0.2,0.3C499.5,391.2,499.5,391.2,499.4,391.1z"/>
	<path fill="none" d="M501.6,394.3c0.1,0.2,0.3,0.5,0.4,0.7C501.9,394.8,501.7,394.5,501.6,394.3z"/>
	<path fill="none" d="M490.6,387.7c0.1,0.1,0.3,0.2,0.4,0.4C490.9,387.9,490.8,387.8,490.6,387.7z"/>
	<path fill="none" d="M489.3,386.5c0.2,0.1,0.3,0.3,0.5,0.4C489.6,386.8,489.4,386.6,489.3,386.5z"/>
	<path fill="none" d="M498.6,397.3c0.1,0.2,0.2,0.4,0.3,0.6C498.8,397.7,498.7,397.5,498.6,397.3z"/>
	<path fill="none" d="M502.6,396c0.1,0.2,0.3,0.5,0.4,0.7C502.9,396.5,502.7,396.3,502.6,396z"/>
	<path fill="none" d="M492.2,389.1C492.3,389.1,492.3,389.2,492.2,389.1C492.3,389.2,492.3,389.1,492.2,389.1z"/>
	<path fill="#DDB46C" d="M488.3,438.6c-2.9,2.9-6.3,5.2-10.1,6.8c-3.9,1.7-8.1,2.5-12.4,2.5c-4.3,0-8.4-0.8-12.4-2.5
		c-3.8-1.6-7.2-3.9-10.1-6.8c-2.9-2.9-5.2-6.3-6.8-10.1c-1.7-3.9-2.5-8.1-2.5-12.4c0-4.3,0.8-8.4,2.5-12.4c1.6-3.8,3.9-7.2,6.8-10.1
		c2.9-2.9,6.3-5.2,10.1-6.8c3.9-1.7,8.1-2.5,12.4-2.5c4.3,0,8.4,0.8,12.4,2.5c3.8,1.6,7.2,3.9,10.1,6.8c2.8,2.8,5,6.1,6.6,9.7h-54.8
		l-1,1.9h56.6h2c-0.2-0.6-0.5-1.3-0.7-1.9c-5-12.3-17.1-20.9-31.2-20.9c-18.6,0-33.7,15.1-33.7,33.7c0,18.6,15.1,33.7,33.7,33.7
		c13.8,0,25.7-8.3,30.9-20.2h-2.1C493,432.9,490.9,435.9,488.3,438.6z"/>
	<path fill="none" d="M493.5,390.4c0.1,0.1,0.2,0.3,0.4,0.4C493.7,390.7,493.6,390.5,493.5,390.4z"/>
	<path fill="none" d="M502.2,405.8c0.1,0.2,0.1,0.5,0.2,0.7C502.3,406.3,502.2,406.1,502.2,405.8z"/>
	<path fill="none" d="M503.5,397.8c0.1,0.3,0.2,0.5,0.4,0.8C503.7,398.3,503.6,398,503.5,397.8z"/>
	<path fill="none" d="M502.6,407.5c0.1,0.3,0.1,0.5,0.2,0.8C502.7,408,502.7,407.8,502.6,407.5z"/>
	<path fill="none" d="M499.4,398.8c0.1,0.2,0.2,0.4,0.3,0.5C499.6,399.2,499.5,399,499.4,398.8z"/>
	<path fill="none" d="M493.5,384.7c0.2,0.2,0.4,0.4,0.6,0.6C493.9,385.1,493.7,384.9,493.5,384.7z"/>
	<path fill="none" d="M500.1,405.4c0.1,0.2,0.1,0.4,0.2,0.7C500.2,405.8,500.1,405.6,500.1,405.4z"/>
	<path fill="none" d="M499.5,403.8c0.1,0.2,0.1,0.4,0.2,0.6C499.6,404.1,499.6,404,499.5,403.8z"/>
	<path fill="none" d="M495,386.1c0.2,0.2,0.4,0.4,0.6,0.6C495.4,386.4,495.2,386.2,495,386.1z"/>
	<path fill="none" d="M500.3,400.7c0,0.1,0.1,0.2,0.1,0.2C500.4,400.9,500.4,400.8,500.3,400.7z"/>
	<path fill="none" d="M497.9,389.1c0.1,0.1,0.2,0.2,0.3,0.4C498.1,389.4,498,389.3,497.9,389.1z"/>
	<path fill="none" d="M501.1,402.5c0.1,0.2,0.1,0.4,0.2,0.6C501.2,402.9,501.2,402.7,501.1,402.5z"/>
	<path fill="none" d="M501.7,404.2c0.1,0.2,0.1,0.5,0.2,0.7C501.8,404.6,501.7,404.4,501.7,404.2z"/>
	<path fill="none" d="M496.4,387.5c0.2,0.2,0.3,0.3,0.5,0.5C496.7,387.9,496.6,387.7,496.4,387.5z"/>
	<path fill="none" d="M487.9,385.4c0.2,0.1,0.4,0.3,0.6,0.4C488.2,385.7,488.1,385.6,487.9,385.4z"/>
	<path fill="none" d="M469.5,378.5c0.2,0,0.5,0.1,0.7,0.1C469.9,378.6,469.7,378.5,469.5,378.5z"/>
	<path fill="none" d="M467.7,378.4c0.2,0,0.4,0,0.6,0C468.1,378.4,467.9,378.4,467.7,378.4z"/>
	<path fill="none" d="M492,383.4c0.2,0.2,0.4,0.4,0.7,0.5C492.4,383.8,492.2,383.6,492,383.4z"/>
	<path fill="none" d="M473,379c0.2,0,0.5,0.1,0.7,0.1C473.5,379.1,473.2,379.1,473,379z"/>
	<path fill="none" d="M506.8,407.2c0.1,0.3,0.1,0.6,0.2,0.9C506.9,407.8,506.8,407.5,506.8,407.2z"/>
	<path fill="none" d="M471.2,378.7c0.2,0,0.5,0.1,0.7,0.1C471.7,378.8,471.5,378.8,471.2,378.7z"/>
	<path fill="none" d="M503.5,402.8c0.1,0.4,0.3,0.8,0.4,1.2C503.8,403.6,503.7,403.2,503.5,402.8z"/>
	<path fill="none" d="M504.1,404.6c0.1,0.4,0.3,0.9,0.4,1.3C504.4,405.5,504.2,405,504.1,404.6z"/>
	<path fill="none" d="M504.6,406.3c0.1,0.6,0.3,1.2,0.4,1.8C504.9,407.5,504.8,406.9,504.6,406.3z"/>
	<path fill="none" d="M505.1,408.5c0.1,0.5,0.2,0.9,0.2,1.4C505.3,409.4,505.2,409,505.1,408.5z"/>
	<path fill="none" d="M483.5,382.7c0.2,0.1,0.4,0.2,0.6,0.3C483.9,382.9,483.7,382.8,483.5,382.7z"/>
	<path fill="none" d="M485,383.6c0.2,0.1,0.4,0.2,0.6,0.4C485.4,383.8,485.2,383.7,485,383.6z"/>
	<path fill="none" d="M505.1,401.4c0.1,0.3,0.2,0.6,0.3,0.8C505.3,402,505.2,401.7,505.1,401.4z"/>
	<path fill="none" d="M482,382c0.2,0.1,0.3,0.2,0.5,0.2C482.3,382.1,482.1,382,482,382z"/>
	<path fill="none" d="M504.3,399.6c0.1,0.3,0.2,0.5,0.3,0.8C504.6,400.1,504.4,399.9,504.3,399.6z"/>
	<path fill="none" d="M486.4,384.5c0.2,0.1,0.4,0.3,0.6,0.4C486.8,384.7,486.6,384.6,486.4,384.5z"/>
	<path fill="none" d="M474.7,379.4c0.2,0.1,0.5,0.1,0.7,0.2C475.2,379.5,475,379.5,474.7,379.4z"/>
	<path fill="none" d="M476.5,379.9c0.2,0.1,0.4,0.1,0.6,0.2C476.9,380,476.7,379.9,476.5,379.9z"/>
	<path fill="none" d="M506.3,405.3c0.1,0.3,0.2,0.6,0.2,0.9C506.5,405.9,506.4,405.6,506.3,405.3z"/>
	<path fill="none" d="M478.2,380.4c0.2,0.1,0.4,0.1,0.5,0.2C478.6,380.6,478.4,380.5,478.2,380.4z"/>
	<path fill="none" d="M480.3,381.2C480.4,381.2,480.4,381.2,480.3,381.2C480.4,381.2,480.4,381.2,480.3,381.2z"/>
	<path fill="none" d="M505.7,403.3c0.1,0.3,0.2,0.6,0.3,0.9C505.9,403.9,505.8,403.6,505.7,403.3z"/>
	<path fill="none" d="M478,376c0.3,0.1,0.6,0.2,0.9,0.3C478.6,376.2,478.3,376.1,478,376z"/>
	<path fill="none" d="M441.5,403.3c0,0,0-0.1,0.1-0.1C441.6,403.2,441.6,403.3,441.5,403.3z"/>
	<path fill="none" d="M485.4,379.1c0.3,0.1,0.5,0.3,0.8,0.4C485.9,379.4,485.6,379.2,485.4,379.1z"/>
	<path fill="none" d="M474.1,375.1c0.3,0.1,0.6,0.1,0.9,0.2C474.7,375.2,474.4,375.1,474.1,375.1z"/>
	<path fill="none" d="M502.7,400.6c0.2,0.6,0.5,1.1,0.7,1.7C503.1,401.7,502.9,401.1,502.7,400.6z"/>
	<path fill="none" d="M479.9,376.7c0.3,0.1,0.6,0.2,0.8,0.3C480.5,376.9,480.2,376.8,479.9,376.7z"/>
	<path fill="none" d="M470,374.5c0.3,0,0.5,0.1,0.8,0.1C470.6,374.5,470.3,374.5,470,374.5z"/>
	<path fill="none" d="M481.8,377.4c0.3,0.1,0.6,0.2,0.8,0.4C482.3,377.6,482.1,377.5,481.8,377.4z"/>
	<path fill="none" d="M487.1,380c0.3,0.2,0.5,0.3,0.8,0.5C487.6,380.4,487.4,380.2,487.1,380z"/>
	<path fill="none" d="M467.9,374.3c0.2,0,0.5,0,0.7,0C468.4,374.3,468.2,374.3,467.9,374.3z"/>
	<path fill="none" d="M483.6,378.2c0.3,0.1,0.5,0.3,0.8,0.4C484.1,378.5,483.9,378.3,483.6,378.2z"/>
	<path fill="none" d="M488.8,381.1c0.2,0.2,0.5,0.3,0.7,0.5C489.3,381.4,489,381.3,488.8,381.1z"/>
	<path fill="none" d="M476.1,375.5c0.3,0.1,0.6,0.2,0.9,0.2C476.6,375.7,476.4,375.6,476.1,375.5z"/>
	<path fill="none" d="M472.1,374.7c0.3,0,0.6,0.1,0.9,0.1C472.6,374.8,472.4,374.7,472.1,374.7z"/>
	<path fill="none" d="M483.1,392.3C483.1,392.3,483.1,392.3,483.1,392.3C483.1,392.3,483.1,392.3,483.1,392.3z"/>
	<path fill="none" d="M490.4,382.2c0.2,0.2,0.5,0.3,0.7,0.5C490.9,382.6,490.7,382.4,490.4,382.2z"/>
	<path fill="#A33225" d="M465.8,365.9c-27.7,0-50.2,22.5-50.2,50.2c0,27.7,22.5,50.2,50.2,50.2c23.1,0,42.5-15.6,48.4-36.8h-2
		c-0.5,1.8-1.2,3.6-1.9,5.4c-1.2,2.9-2.7,5.6-4.5,8.2c-1.7,2.6-3.7,5-5.9,7.1c-2.2,2.2-4.6,4.2-7.1,5.9c-2.6,1.7-5.3,3.2-8.2,4.5
		c-6,2.5-12.3,3.8-18.8,3.8c-6.5,0-12.8-1.3-18.8-3.8c-2.9-1.2-5.6-2.7-8.2-4.5c-2.6-1.7-5-3.7-7.1-5.9c-2.2-2.2-4.2-4.6-5.9-7.1
		c-1.7-2.6-3.2-5.3-4.5-8.2c-2.5-6-3.8-12.3-3.8-18.8c0-6.5,1.3-12.8,3.8-18.8c1.2-2.9,2.7-5.6,4.5-8.2c1.7-2.6,3.7-5,5.9-7.1
		c2.2-2.2,4.6-4.2,7.1-5.9c2.6-1.7,5.3-3.2,8.2-4.5c6-2.5,12.3-3.8,18.8-3.8c6.5,0,12.8,1.3,18.8,3.8c2.9,1.2,5.6,2.7,8.2,4.5
		c2.6,1.7,5,3.7,7.1,5.9c2.2,2.2,4.2,4.6,5.9,7.1c1.7,2.6,3.2,5.3,4.5,8.2c2.5,6,3.8,12.3,3.8,18.8c0,0.6,0,1.5,0,2.4h-76.7v1.9H514
		h1.8c0.1-0.6,0.1-1.3,0.1-1.9c0-0.8,0.1-1.6,0.1-2.4C516,388.4,493.6,365.9,465.8,365.9z"/>
	<path fill="#C57057" d="M437.4,416.7H510h1.9c0-0.6,0-1.3,0-1.9c-1.2-24.4-21.4-44.7-46-44.7c-25.4,0-46.1,20.6-46.1,46.1
		c0,25.4,20.6,46.1,46.1,46.1c20.8,0,38.3-13.8,44-32.6h-2c-0.4,1.3-0.9,2.5-1.4,3.8c-1.1,2.6-2.5,5.1-4.1,7.5
		c-1.6,2.3-3.4,4.5-5.4,6.5c-2,2-4.2,3.8-6.5,5.4c-2.4,1.6-4.9,3-7.5,4.1c-5.4,2.3-11.2,3.5-17.2,3.5c-6,0-11.7-1.2-17.2-3.5
		c-2.6-1.1-5.1-2.5-7.5-4.1c-2.3-1.6-4.5-3.4-6.5-5.4c-2-2-3.8-4.2-5.4-6.5c-1.6-2.4-3-4.9-4.1-7.5c-2.3-5.4-3.5-11.2-3.5-17.2
		c0-6,1.2-11.7,3.5-17.2c1.1-2.6,2.5-5.1,4.1-7.5c1.6-2.3,3.4-4.5,5.4-6.5c2-2,4.2-3.8,6.5-5.4c2.4-1.6,4.9-3,7.5-4.1
		c5.4-2.3,11.2-3.5,17.2-3.5c6,0,11.7,1.2,17.2,3.5c2.6,1.1,5.1,2.5,7.5,4.1c2.3,1.6,4.5,3.4,6.5,5.4c2,2,3.8,4.2,5.4,6.5
		c1.6,2.4,3,4.9,4.1,7.5c2,4.7,3.1,10.5,3.4,15.8h-72.5V416.7z"/>
	<path fill="#B3B3B3" d="M505,408.1c0,0.1,0.1,0.3,0.1,0.4C505.1,408.4,505,408.2,505,408.1z"/>
	<path fill="#B3B3B3" d="M503.9,404c0.1,0.2,0.1,0.4,0.2,0.6C504.1,404.4,504,404.2,503.9,404z"/>
	<path fill="#B3B3B3" d="M504.5,405.9c0,0.1,0.1,0.3,0.1,0.4C504.6,406.2,504.5,406.1,504.5,405.9z"/>
	<path fill="#B3B3B3" d="M503.3,402.3c0.1,0.2,0.1,0.3,0.2,0.5C503.5,402.6,503.4,402.4,503.3,402.3z"/>
	<path fill="#B3B3B3" d="M468.6,374.3c0.5,0,0.9,0.1,1.4,0.1C469.6,374.4,469.1,374.4,468.6,374.3z"/>
	<path fill="#B3B3B3" d="M507,408.2c0.1,0.4,0.1,0.7,0.2,1.1C507.1,408.9,507,408.5,507,408.2z"/>
	<path fill="#B3B3B3" d="M465.8,374.2c0.7,0,1.4,0,2.1,0.1C467.2,374.3,466.5,374.2,465.8,374.2z"/>
	<path fill="#B3B3B3" d="M506.5,406.2c0.1,0.4,0.2,0.7,0.2,1.1C506.7,406.9,506.6,406.5,506.5,406.2z"/>
	<path fill="#B3B3B3" d="M470.8,374.5c0.4,0,0.8,0.1,1.2,0.2C471.7,374.6,471.2,374.6,470.8,374.5z"/>
	<path fill="#B3B3B3" d="M506,404.2c0.1,0.4,0.2,0.7,0.3,1.1C506.2,404.9,506.1,404.6,506,404.2z"/>
	<path fill="#B3B3B3" d="M487.9,380.5c0.3,0.2,0.6,0.4,0.9,0.6C488.5,380.9,488.2,380.7,487.9,380.5z"/>
	<path fill="#B3B3B3" d="M498.2,389.5c0.4,0.5,0.8,1,1.2,1.5C499,390.5,498.6,390,498.2,389.5z"/>
	<path fill="#B3B3B3" d="M486.2,379.5c0.3,0.2,0.6,0.4,0.9,0.5C486.8,379.9,486.5,379.7,486.2,379.5z"/>
	<path fill="#B3B3B3" d="M496.9,388c0.3,0.4,0.6,0.7,1,1.1C497.5,388.8,497.2,388.4,496.9,388z"/>
	<path fill="#B3B3B3" d="M499.6,391.3c0.3,0.4,0.6,0.9,0.9,1.3C500.2,392.2,499.9,391.8,499.6,391.3z"/>
	<path fill="#B3B3B3" d="M495.5,386.6c0.3,0.3,0.6,0.6,0.9,0.9C496.1,387.2,495.8,386.9,495.5,386.6z"/>
	<path fill="#B3B3B3" d="M500.9,393.2c0.2,0.4,0.5,0.7,0.7,1.1C501.4,394,501.1,393.6,500.9,393.2z"/>
	<path fill="#B3B3B3" d="M492.7,384c0.3,0.2,0.6,0.5,0.9,0.7C493.2,384.4,492.9,384.2,492.7,384z"/>
	<path fill="#B3B3B3" d="M491.1,382.7c0.3,0.2,0.6,0.5,0.9,0.7C491.7,383.2,491.4,383,491.1,382.7z"/>
	<path fill="#B3B3B3" d="M489.5,381.6c0.3,0.2,0.6,0.4,0.9,0.6C490.1,382,489.8,381.8,489.5,381.6z"/>
	<path fill="#B3B3B3" d="M494.1,385.2c0.3,0.3,0.6,0.5,0.8,0.8C494.7,385.8,494.4,385.5,494.1,385.2z"/>
	<path fill="#B3B3B3" d="M472.9,374.9c0.4,0.1,0.8,0.1,1.2,0.2C473.7,375,473.3,374.9,472.9,374.9z"/>
	<path fill="#B3B3B3" d="M476.9,375.7c0.4,0.1,0.7,0.2,1.1,0.3C477.7,375.9,477.3,375.8,476.9,375.7z"/>
	<path fill="#B3B3B3" d="M504.7,400.4c0.1,0.3,0.3,0.7,0.4,1C504.9,401.1,504.8,400.8,504.7,400.4z"/>
	<path fill="#B3B3B3" d="M505.4,402.3c0.1,0.3,0.2,0.7,0.4,1C505.6,403,505.5,402.6,505.4,402.3z"/>
	<path fill="#B3B3B3" d="M475,375.2c0.4,0.1,0.7,0.2,1.1,0.3C475.7,375.4,475.3,375.3,475,375.2z"/>
	<path fill="#B3B3B3" d="M503.9,398.6c0.2,0.3,0.3,0.7,0.5,1C504.2,399.2,504,398.9,503.9,398.6z"/>
	<path fill="#B3B3B3" d="M503,396.8c0.2,0.3,0.4,0.7,0.5,1C503.3,397.4,503.2,397.1,503,396.8z"/>
	<path fill="#B3B3B3" d="M484.4,378.6c0.3,0.2,0.6,0.3,1,0.5C485.1,378.9,484.7,378.7,484.4,378.6z"/>
	<path fill="#B3B3B3" d="M502,395c0.2,0.3,0.4,0.7,0.6,1C502.4,395.7,502.2,395.3,502,395z"/>
	<path fill="#B3B3B3" d="M478.9,376.3c0.3,0.1,0.7,0.2,1,0.4C479.6,376.6,479.2,376.4,478.9,376.3z"/>
	<path fill="#B3B3B3" d="M480.8,377c0.3,0.1,0.7,0.3,1,0.4C481.4,377.3,481.1,377.1,480.8,377z"/>
	<path fill="#B3B3B3" d="M482.6,377.7c0.3,0.1,0.7,0.3,1,0.4C483.3,378,482.9,377.9,482.6,377.7z"/>
	<g>
		<path fill="#DD8773" d="M507.4,410.9c0-0.2-0.1-0.5-0.1-0.7c0-0.3-0.1-0.6-0.1-0.9c-0.1-0.4-0.1-0.7-0.2-1.1
			c-0.1-0.3-0.1-0.6-0.2-0.9c-0.1-0.4-0.2-0.7-0.2-1.1c-0.1-0.3-0.1-0.6-0.2-0.9c-0.1-0.4-0.2-0.7-0.3-1.1c-0.1-0.3-0.2-0.6-0.3-0.9
			c-0.1-0.4-0.2-0.7-0.4-1c-0.1-0.3-0.2-0.6-0.3-0.8c-0.1-0.3-0.3-0.7-0.4-1c-0.1-0.3-0.2-0.6-0.3-0.8c-0.1-0.3-0.3-0.7-0.5-1
			c-0.1-0.3-0.2-0.5-0.4-0.8c-0.2-0.3-0.3-0.7-0.5-1c-0.1-0.2-0.3-0.5-0.4-0.7c-0.2-0.3-0.4-0.7-0.6-1c-0.1-0.2-0.3-0.5-0.4-0.7
			c-0.2-0.4-0.5-0.7-0.7-1.1c-0.1-0.2-0.2-0.4-0.4-0.6c-0.3-0.5-0.6-0.9-0.9-1.3c-0.1-0.1-0.1-0.2-0.2-0.3c-0.4-0.5-0.8-1-1.2-1.5
			c-0.1-0.1-0.2-0.2-0.3-0.4c-0.3-0.4-0.6-0.7-1-1.1c-0.2-0.2-0.3-0.3-0.5-0.5c-0.3-0.3-0.6-0.6-0.9-0.9c-0.2-0.2-0.4-0.4-0.6-0.6
			c-0.3-0.3-0.6-0.5-0.8-0.8c-0.2-0.2-0.4-0.4-0.6-0.6c-0.3-0.2-0.6-0.5-0.9-0.7c-0.2-0.2-0.4-0.4-0.7-0.5c-0.3-0.2-0.6-0.5-0.9-0.7
			c-0.2-0.2-0.5-0.3-0.7-0.5c-0.3-0.2-0.6-0.4-0.9-0.6c-0.2-0.2-0.5-0.3-0.7-0.5c-0.3-0.2-0.6-0.4-0.9-0.6c-0.3-0.2-0.5-0.3-0.8-0.5
			c-0.3-0.2-0.6-0.4-0.9-0.5c-0.3-0.1-0.5-0.3-0.8-0.4c-0.3-0.2-0.6-0.3-1-0.5c-0.3-0.1-0.5-0.3-0.8-0.4c-0.3-0.2-0.7-0.3-1-0.4
			c-0.3-0.1-0.6-0.2-0.8-0.4c-0.3-0.1-0.7-0.3-1-0.4c-0.3-0.1-0.6-0.2-0.8-0.3c-0.3-0.1-0.7-0.2-1-0.4c-0.3-0.1-0.6-0.2-0.9-0.3
			c-0.4-0.1-0.7-0.2-1.1-0.3c-0.3-0.1-0.6-0.2-0.9-0.2c-0.4-0.1-0.7-0.2-1.1-0.3c-0.3-0.1-0.6-0.1-0.9-0.2c-0.4-0.1-0.8-0.1-1.2-0.2
			c-0.3,0-0.6-0.1-0.9-0.1c-0.4-0.1-0.8-0.1-1.2-0.2c-0.3,0-0.5-0.1-0.8-0.1c-0.5,0-0.9-0.1-1.4-0.1c-0.2,0-0.5,0-0.7,0
			c-0.7,0-1.4-0.1-2.1-0.1c-23.1,0-41.9,18.8-41.9,41.9c0,23.1,18.8,41.9,41.9,41.9c18.4,0,34.1-11.9,39.7-28.5h-2
			c-0.3,0.7-0.5,1.4-0.8,2.1c-2,4.8-4.9,9-8.6,12.7c-3.7,3.7-7.9,6.6-12.7,8.6c-4.9,2.1-10.2,3.1-15.6,3.1c-5.4,0-10.6-1.1-15.6-3.1
			c-4.8-2-9-4.9-12.7-8.6c-3.7-3.7-6.6-7.9-8.6-12.7c-2.1-4.9-3.1-10.2-3.1-15.6c0-5.4,1.1-10.6,3.1-15.6c2-4.8,4.9-9,8.6-12.7
			c3.7-3.7,7.9-6.6,12.7-8.6c4.9-2.1,10.2-3.1,15.6-3.1c5.4,0,10.6,1.1,15.6,3.1c4.8,2,9,4.9,12.7,8.6c3.7,3.7,6.6,7.9,8.6,12.7
			c0.2,0.6,0.5,1.1,0.7,1.7c0.1,0.2,0.1,0.3,0.2,0.5c0.1,0.4,0.3,0.8,0.4,1.2c0.1,0.2,0.1,0.4,0.2,0.6c0.1,0.4,0.3,0.9,0.4,1.3
			c0,0.1,0.1,0.3,0.1,0.4c0.1,0.6,0.3,1.2,0.4,1.8c0,0.1,0.1,0.3,0.1,0.4c0.1,0.5,0.2,0.9,0.2,1.4c0,0.2,0.1,0.4,0.1,0.6
			c0,0.1,0,0.3,0.1,0.4h-68.1v1.9h68.2h1.9c0-0.3,0-0.5,0-0.6c0-0.3-0.1-0.6-0.1-0.9C507.4,411.2,507.4,411,507.4,410.9z"/>
		<path fill="#DD8773" d="M507.6,412.6c0-0.1,0-0.3,0-0.4C507.6,412.4,507.6,412.5,507.6,412.6L507.6,412.6z"/>
	</g>
	<path fill="#E0A16C" d="M498.9,430.1c-1.8,4.3-4.4,8.1-7.7,11.4c-3.3,3.3-7.1,5.9-11.4,7.7c-4.4,1.9-9.1,2.8-14,2.8
		c-4.8,0-9.5-0.9-14-2.8c-4.3-1.8-8.1-4.4-11.4-7.7c-3.3-3.3-5.9-7.1-7.7-11.4c-1.9-4.4-2.8-9.1-2.8-14c0-4.8,0.9-9.5,2.8-14
		c1.8-4.3,4.4-8.1,7.7-11.4c3.3-3.3,7.1-5.9,11.4-7.7c4.4-1.9,9.1-2.8,14-2.8c4.8,0,9.5,0.9,14,2.8c4.3,1.8,8.1,4.4,11.4,7.7
		c3.3,3.3,5.9,7.1,7.7,11.4c0.2,0.5,0.4,1.1,0.6,1.6c0.1,0.2,0.1,0.4,0.2,0.6c0.1,0.4,0.2,0.7,0.4,1.1c0.1,0.2,0.1,0.4,0.2,0.7
		c0.1,0.3,0.2,0.7,0.3,1l0,0h-62.1v1.9H501h2c0-0.2-0.1-0.6-0.2-0.7c-0.1-0.3-0.1-0.5-0.2-0.8c0-0.2-0.1-0.3-0.1-0.4
		c0-0.2-0.1-0.3-0.1-0.5c-0.1-0.2-0.1-0.5-0.2-0.7c-0.1-0.3-0.2-0.6-0.3-1c-0.1-0.2-0.1-0.5-0.2-0.7c-0.1-0.4-0.2-0.7-0.4-1
		c-0.1-0.2-0.1-0.4-0.2-0.6c-0.2-0.5-0.4-1.1-0.6-1.6c0-0.1-0.1-0.2-0.1-0.2c-0.2-0.4-0.4-0.9-0.6-1.3c-0.1-0.2-0.2-0.4-0.3-0.5
		c-0.2-0.3-0.3-0.7-0.5-1c-0.1-0.2-0.2-0.4-0.3-0.6c-0.2-0.3-0.3-0.6-0.5-0.9c-0.1-0.2-0.3-0.4-0.4-0.6c-0.2-0.3-0.4-0.6-0.6-0.8
		c-0.1-0.2-0.3-0.4-0.4-0.6c-0.2-0.3-0.4-0.5-0.6-0.8c-0.1-0.2-0.3-0.4-0.4-0.6c-0.2-0.3-0.4-0.5-0.7-0.8c-0.1-0.2-0.3-0.3-0.4-0.5
		c-0.3-0.3-0.5-0.6-0.8-0.9c-0.1-0.1-0.2-0.3-0.4-0.4c-0.4-0.4-0.8-0.8-1.2-1.2c0,0,0,0-0.1,0c-0.4-0.4-0.8-0.8-1.2-1.1
		c-0.1-0.1-0.3-0.2-0.4-0.4c-0.3-0.3-0.6-0.5-0.9-0.7c-0.2-0.1-0.3-0.3-0.5-0.4c-0.3-0.2-0.6-0.4-0.8-0.6c-0.2-0.1-0.4-0.3-0.6-0.4
		c-0.3-0.2-0.6-0.4-0.8-0.6c-0.2-0.1-0.4-0.3-0.6-0.4c-0.3-0.2-0.6-0.4-0.9-0.5c-0.2-0.1-0.4-0.2-0.6-0.4c-0.3-0.2-0.6-0.4-0.9-0.5
		c-0.2-0.1-0.4-0.2-0.6-0.3c-0.3-0.2-0.7-0.4-1-0.5c-0.2-0.1-0.3-0.2-0.5-0.2c-0.5-0.2-1-0.5-1.6-0.7c0,0,0,0,0,0
		c-0.5-0.2-1-0.4-1.6-0.6c-0.2-0.1-0.4-0.1-0.5-0.2c-0.4-0.1-0.7-0.3-1.1-0.4c-0.2-0.1-0.4-0.1-0.6-0.2c-0.3-0.1-0.7-0.2-1-0.3
		c-0.2-0.1-0.5-0.1-0.7-0.2c-0.3-0.1-0.7-0.2-1-0.2c-0.2-0.1-0.5-0.1-0.7-0.1c-0.3-0.1-0.7-0.1-1-0.2c-0.2,0-0.5-0.1-0.7-0.1
		c-0.4-0.1-0.7-0.1-1.1-0.1c-0.2,0-0.5-0.1-0.7-0.1c-0.4,0-0.8-0.1-1.2-0.1c-0.2,0-0.4,0-0.6,0c-0.6,0-1.2,0-1.8,0
		c-20.9,0-37.8,16.9-37.8,37.8c0,20.9,16.9,37.8,37.8,37.8c16.1,0,29.9-10.1,35.3-24.4h-2.1C499,429.7,499,429.9,498.9,430.1z"/>
	<path fill="#B3B3B3" d="M497.1,394.9c0.2,0.3,0.4,0.6,0.6,0.8C497.5,395.5,497.3,395.2,497.1,394.9z"/>
	<path fill="#B3B3B3" d="M498.9,397.9c0.2,0.3,0.3,0.6,0.5,1C499.3,398.5,499.1,398.2,498.9,397.9z"/>
	<path fill="#B3B3B3" d="M498,396.4c0.2,0.3,0.4,0.6,0.5,0.9C498.4,397,498.2,396.7,498,396.4z"/>
	<path fill="#B3B3B3" d="M496.1,393.5c0.2,0.3,0.4,0.5,0.6,0.8C496.5,394.1,496.3,393.8,496.1,393.5z"/>
	<path fill="#B3B3B3" d="M492.3,389.2c0.4,0.4,0.8,0.8,1.2,1.2C493.1,390,492.7,389.6,492.3,389.2z"/>
	<path fill="#B3B3B3" d="M493.8,390.8c0.3,0.3,0.5,0.6,0.8,0.9C494.4,391.4,494.1,391.1,493.8,390.8z"/>
	<path fill="#B3B3B3" d="M495,392.2c0.2,0.3,0.4,0.5,0.7,0.8C495.5,392.7,495.3,392.4,495,392.2z"/>
	<path fill="#B3B3B3" d="M491.1,388c0.4,0.4,0.8,0.7,1.2,1.1C491.9,388.7,491.5,388.4,491.1,388z"/>
	<path fill="#B3B3B3" d="M502.4,406.6c0.1,0.3,0.2,0.6,0.2,0.9C502.5,407.2,502.5,406.9,502.4,406.6z"/>
	<path fill="#B3B3B3" d="M501.9,404.9c0.1,0.3,0.2,0.6,0.3,1C502.1,405.5,502,405.2,501.9,404.9z"/>
	<path fill="#B3B3B3" d="M502.8,408.3c0,0.1,0.1,0.3,0.1,0.4c0,0,0,0,0,0C502.9,408.6,502.8,408.4,502.8,408.3z"/>
	<path fill="#B3B3B3" d="M501.3,403.1c0.1,0.3,0.3,0.7,0.4,1C501.6,403.8,501.4,403.5,501.3,403.1z"/>
	<path fill="#B3B3B3" d="M500.4,401c0.2,0.5,0.4,1,0.6,1.6C500.9,402,500.7,401.5,500.4,401z"/>
	<path fill="#B3B3B3" d="M499.7,399.4c0.2,0.4,0.4,0.9,0.6,1.3C500.1,400.3,499.9,399.8,499.7,399.4z"/>
	<path fill="#B3B3B3" d="M485.6,383.9c0.3,0.2,0.6,0.4,0.9,0.5C486.2,384.3,485.9,384.1,485.6,383.9z"/>
	<path fill="#B3B3B3" d="M473.7,379.2c0.3,0.1,0.7,0.2,1,0.2C474.4,379.3,474.1,379.3,473.7,379.2z"/>
	<path fill="#B3B3B3" d="M472,378.9c0.3,0.1,0.7,0.1,1,0.2C472.7,379,472.3,378.9,472,378.9z"/>
	<path fill="#B3B3B3" d="M475.4,379.6c0.3,0.1,0.7,0.2,1,0.3C476.1,379.8,475.8,379.7,475.4,379.6z"/>
	<path fill="#B3B3B3" d="M468.3,378.4c0.4,0,0.8,0.1,1.2,0.1C469.1,378.5,468.7,378.5,468.3,378.4z"/>
	<path fill="#B3B3B3" d="M489.8,386.9c0.3,0.2,0.6,0.5,0.9,0.7C490.4,387.4,490.1,387.1,489.8,386.9z"/>
	<path fill="#B3B3B3" d="M477.1,380.1c0.4,0.1,0.7,0.2,1.1,0.4C477.9,380.3,477.5,380.2,477.1,380.1z"/>
	<path fill="#B3B3B3" d="M470.2,378.6c0.4,0,0.7,0.1,1.1,0.1C470.9,378.7,470.5,378.6,470.2,378.6z"/>
	<path fill="#B3B3B3" d="M480.4,381.3c0.5,0.2,1.1,0.5,1.6,0.7C481.4,381.7,480.9,381.5,480.4,381.3z"/>
	<path fill="#B3B3B3" d="M487,384.9c0.3,0.2,0.6,0.4,0.8,0.6C487.6,385.2,487.3,385.1,487,384.9z"/>
	<path fill="#B3B3B3" d="M465.8,378.4c0.6,0,1.2,0,1.8,0C467.1,378.4,466.4,378.4,465.8,378.4z"/>
	<path fill="#B3B3B3" d="M488.4,385.9c0.3,0.2,0.6,0.4,0.8,0.6C489,386.3,488.7,386.1,488.4,385.9z"/>
	<path fill="#B3B3B3" d="M478.8,380.6c0.5,0.2,1.1,0.4,1.6,0.6C479.8,381,479.3,380.8,478.8,380.6z"/>
	<path fill="#B3B3B3" d="M482.4,382.2c0.4,0.2,0.7,0.3,1,0.5C483.1,382.5,482.8,382.4,482.4,382.2z"/>
	<path fill="#B3B3B3" d="M484.1,383c0.3,0.2,0.6,0.3,0.9,0.5C484.7,383.4,484.4,383.2,484.1,383z"/>
	<path fill="#B3B3B3" d="M500.3,406.1c0.1,0.3,0.2,0.7,0.3,1C500.5,406.7,500.4,406.4,500.3,406.1z"/>
	<path fill="#B3B3B3" d="M498.9,402.2c0.2,0.5,0.4,1.1,0.6,1.6C499.3,403.2,499.1,402.7,498.9,402.2z"/>
	<path fill="#B3B3B3" d="M499.7,404.3c0.1,0.4,0.2,0.7,0.4,1.1C500,405,499.8,404.7,499.7,404.3z"/>
	<path fill="#A33225" d="M398,410.5c0-0.1,0-0.2,0-0.3c0-25.3-20.6-45.7-45.9-45.7c-3.1,0-6.1,0.3-9,0.9v1.8c3-0.6,6-0.9,9-0.9
		c6,0,11.7,1.2,17.2,3.5c2.6,1.1,5.1,2.5,7.5,4.1c2.3,1.6,4.5,3.4,6.5,5.4c2,2,3.8,4.2,5.4,6.5c1.6,2.4,3,4.9,4.1,7.5
		c2.3,5.4,3.3,11.2,3.3,17.2c0,0.1,0,0.1,0,0.1v52.3h1.9L398,410.5L398,410.5z"/>
	<path fill="#B27247" d="M352.1,368.2c-3.1,0-6.1,0.4-9,1v1.8c2.9-0.7,5.9-1,9-1c5.4,0,10.7,1.1,15.7,3.2c2.4,1,4.7,2.3,6.8,3.7
		c2.1,1.4,4.1,3.1,6,4.9c1.8,1.8,3.5,3.8,4.9,6c1.5,2.2,2.7,4.5,3.7,6.8c2.1,5,3.2,10.2,3.2,15.7c0,0.1,0,0.1,0,0.2v52.3h1.8v-52.3
		c0-0.1,0-0.1,0-0.2C394.1,387,375.3,368.2,352.1,368.2z"/>
	<path fill="#CC8352" d="M390.3,410.3c0-21.1-17.1-38.3-38.3-38.3c-3.1,0-6.1,0.4-9,1.1v1.8c2.9-0.7,5.9-1.1,9-1.1
		c4.9,0,9.7,1,14.2,2.9c4.3,1.8,8.3,4.5,11.6,7.8c3.4,3.4,6,7.3,7.8,11.6c1.9,4.5,2.9,9.3,2.9,14.2c0,0.1,0,0.1,0,0.2v52.3h1.8
		v-52.3h0C390.3,410.4,390.3,410.3,390.3,410.3z"/>
	<path fill="#E0A16C" d="M382.6,410.3c0-17-13.8-30.8-30.8-30.8c-3.1,0-6,0.5-8.8,1.3v1.8c2.8-0.9,5.8-1.4,8.8-1.4
		c3.9,0,7.7,0.8,11.3,2.3c3.5,1.5,6.6,3.6,9.2,6.2c2.7,2.7,4.8,5.8,6.2,9.2c1.5,3.6,2.3,7.4,2.3,11.3c0,0,0,0.1,0,0.1h0v52.3h1.8
		v-52.3h0C382.6,410.4,382.6,410.4,382.6,410.3z"/>
	<path fill="#DD8773" d="M351.9,383.5c-3.1,0-6.1,0.5-8.9,1.5v1.9c2.8-1.1,5.8-1.6,8.9-1.6c3.4,0,6.7,0.7,9.8,2c3,1.3,5.7,3.1,8,5.4
		c2.3,2.3,4.1,5,5.4,8c1.3,3.1,2,6.4,2,9.8c0,0.1,0,0.1,0,0.2h0v52.2h1.7v-52.2c0-0.1,0-0.1,0-0.2
		C378.8,395.5,366.8,383.5,351.9,383.5z"/>
	<path fill="#C57057" d="M352,387.3c-3.2,0-6.2,0.7-8.9,1.8v1.9c0.2-0.1,0.4-0.2,0.7-0.3c2.6-1.1,5.4-1.7,8.2-1.7
		c2.9,0,5.6,0.6,8.2,1.7c2.5,1.1,4.8,2.6,6.7,4.5c1.9,1.9,3.5,4.2,4.5,6.7c1.1,2.6,1.7,5.4,1.7,8.2c0,0.1,0,0.2,0,0.2h0v52.2h1.8
		v-52.2c0-0.1,0-0.2,0-0.2C374.9,397.6,364.6,387.3,352,387.3z"/>
	<path fill="#A33225" d="M371,410.5c0-0.1,0-0.1,0-0.2c0-10.5-8.5-19-19-19c-3.2,0-6.3,0.8-9,2.3l0,2.1c0.5-0.3,1.8-1,2.3-1.3
		c2.1-0.9,4.4-1.4,6.7-1.4c2.3,0,4.6,0.5,6.7,1.4c2,0.9,3.9,2.1,5.5,3.7c1.6,1.6,2.8,3.4,3.7,5.5c0.9,2.1,1.4,4.4,1.4,6.7
		c0,0.1,0,0.2,0,0.2h0v52.2h1.8L371,410.5L371,410.5z"/>
	<path fill="#DDB46C" d="M386.5,410c-0.2-18.9-15.5-34.2-34.5-34.2c-3.1,0-6,0.4-8.9,1.2v1.8c2.9-0.8,5.8-1.2,8.9-1.2
		c4.4,0,8.7,0.9,12.8,2.6c3.9,1.7,7.4,4,10.4,7c3,3,5.4,6.5,7,10.4c1.7,4,2.5,8.2,2.6,12.5h0v52.6h1.7L386.5,410L386.5,410z"/>
	<path fill="#DD8773" d="M489.5,430c-0.1,0.2-0.2,0.4-0.4,0.6c-0.2,0.3-0.3,0.5-0.5,0.8c-0.2,0.4-0.5,0.7-0.7,1.1
		c-0.2,0.3-0.5,0.6-0.7,0.9c-0.2,0.3-0.5,0.6-0.7,0.9c-0.4,0.5-0.8,0.9-1.2,1.4c-0.1,0.1-0.2,0.2-0.3,0.3c-2.5,2.5-5.5,4.5-8.7,5.9
		c-3.4,1.4-7,2.2-10.7,2.2c-3.7,0-7.3-0.7-10.7-2.2c-3.3-1.4-6.2-3.4-8.7-5.9c-2.5-2.5-4.5-5.5-5.9-8.7c-1.4-3.4-2.2-7-2.2-10.7
		c0-3.7,0.7-7.3,2.2-10.7c0.3-0.7,0.7-1.4,1-2.1c0,0,0-0.1,0.1-0.1c0.4-0.7,0.8-1.4,1.2-2c0,0,0-0.1,0.1-0.1h45.9h2.3
		c-0.4-0.7-0.8-1.3-1.3-1.9h0c-0.1-0.1-0.2-0.3-0.3-0.4c-0.1-0.1-0.2-0.2-0.2-0.3c-0.7-0.9-1.4-1.8-2.2-2.6
		c-0.1-0.1-0.1-0.1-0.2-0.2c-0.3-0.3-0.5-0.5-0.8-0.8c0,0-0.1-0.1-0.1-0.1c-0.9-0.8-1.8-1.6-2.8-2.4c0,0,0,0,0,0
		c-4.8-3.5-10.8-5.6-17.2-5.6c-11.2,0-20.9,6.2-25.8,15.4c-2.3,4.2-3.5,8.9-3.5,14c0,16.2,13.2,29.4,29.4,29.4
		c11.4,0,21.2-6.5,26.1-16H489.5z M444,399.6c0.2-0.3,0.5-0.6,0.7-0.9c0.5-0.5,0.9-1.1,1.4-1.6c2.5-2.5,5.5-4.5,8.7-5.9
		c3.4-1.4,7-2.2,10.7-2.2c3.7,0,7.3,0.7,10.7,2.2c3.3,1.4,6.2,3.4,8.7,5.9c0.6,0.6,1.1,1.2,1.6,1.8c0.1,0.2,0.3,0.3,0.4,0.5
		c0.1,0.1,0.1,0.2,0.2,0.2L444,399.6C443.9,399.6,444,399.6,444,399.6z"/>
</g>
</svg>
